<svg width="18" height="12" viewBox="0 0 18 12" fill="none" xmlns="http://www.w3.org/2000/svg">
<path d="M18 1.00012V11C18 11.5675 17.5134 12 16.875 12H15.75V2.9246L9 7.23455L2.25 2.9246V12H1.125C0.486562 12 0 11.5675 0 11V1.00012C0 0.716118 0.120375 0.466121 0.322313 0.289123C0.427485 0.195587 0.552741 0.121803 0.690634 0.0721565C0.828528 0.0225098 0.976243 -0.0019859 1.125 0.000125786H1.50019L9 4.83358L16.4998 0.000125786H16.875C17.1945 0.000125786 17.4757 0.107125 17.6777 0.289123C17.8796 0.466121 18 0.716118 18 1.00012Z" fill="white"/>
</svg>
