<svg width="17" height="16" viewBox="0 0 17 16" fill="none" xmlns="http://www.w3.org/2000/svg">
<path d="M8.50053 0.000512621C3.80452 0.000512621 0 3.67451 0 8.20255C0 11.8284 2.4354 14.9016 5.81064 15.9858C6.23727 16.0632 6.39134 15.8094 6.39134 15.59C6.39134 15.3952 6.38656 14.88 6.38337 14.1962C4.01756 14.6904 3.51922 13.0935 3.51922 13.0935C3.13191 12.1483 2.573 11.8945 2.573 11.8945C1.80371 11.3875 2.6341 11.3983 2.6341 11.3983C3.48628 11.4542 3.93468 12.2415 3.93468 12.2415C4.69282 13.4965 5.92381 13.1335 6.41099 12.9223C6.48537 12.3938 6.70692 12.0303 6.94812 11.8279C5.061 11.6223 3.07666 10.9174 3.07666 7.77451C3.07666 6.8769 3.40606 6.14589 3.95062 5.57175C3.85658 5.36619 3.56863 4.5306 4.02553 3.40077C4.02553 3.40077 4.73692 3.18188 6.36318 4.24199C7.05592 4.0602 7.77041 3.96696 8.48831 3.96466C9.21086 3.96928 9.93287 4.06052 10.6134 4.24199C12.2301 3.18188 12.941 3.40077 12.941 3.40077C13.3974 4.5306 13.1094 5.36567 13.0265 5.57175C13.5658 6.14589 13.8952 6.87741 13.8952 7.77451C13.8952 10.9246 11.9082 11.6192 10.0189 11.8197C10.3143 12.0652 10.5911 12.5701 10.5911 13.3365C10.5911 14.4335 10.5805 15.3173 10.5805 15.5844C10.5805 15.7976 10.7293 16.054 11.167 15.9714C14.5673 14.8985 17 11.8227 17 8.20204C17 3.674 13.1955 0 8.49947 0L8.50053 0.000512621Z" fill="white"/>
</svg>
