<svg width="19" height="18" viewBox="0 0 19 18" fill="none" xmlns="http://www.w3.org/2000/svg">
<path d="M15.9774 15.3395H13.2034V11.1619C13.2034 10.1657 13.1817 8.88553 11.7527 8.88553C10.3062 8.88553 10.0858 9.96606 10.0858 11.0882V15.3389H7.30825V6.74923H9.97624V7.92088H10.012C10.3848 7.24421 11.2915 6.53267 12.6442 6.53267C15.4582 6.53267 15.9804 8.31068 15.9804 10.6225V15.3389L15.9774 15.3395ZM4.1702 5.57533C3.95818 5.5754 3.74824 5.53533 3.55239 5.45742C3.35654 5.37951 3.17863 5.26528 3.02885 5.12128C2.87907 4.97728 2.76037 4.80633 2.67954 4.61824C2.5987 4.43014 2.55734 4.22859 2.5578 4.02512C2.55815 3.71888 2.65311 3.41961 2.83067 3.16516C3.00823 2.91071 3.26043 2.71249 3.55537 2.59558C3.85031 2.47867 4.17475 2.44831 4.48767 2.50834C4.80059 2.56837 5.08793 2.7161 5.31337 2.93284C5.53881 3.14959 5.69222 3.42561 5.7542 3.72602C5.81619 4.02643 5.78397 4.33774 5.66161 4.62057C5.53925 4.90341 5.33225 5.14507 5.06678 5.31502C4.80132 5.48496 4.48931 5.57555 4.1702 5.57533ZM5.56163 15.3395H2.77818V6.74979H5.56163V15.3395ZM17.3701 0H1.38323C0.619522 0 0 0.579919 0 1.29765V16.7024C0 17.4201 0.619522 18 1.38323 18H17.3671C18.1297 18 18.7556 17.4201 18.7556 16.7024V1.29765C18.7556 0.579919 18.1297 0 17.3671 0H17.3701Z" fill="white"/>
</svg>
